<?xml version="1.0" encoding="utf-8"?>
<!-- Generator: Adobe Illustrator 18.1.0, SVG Export Plug-In . SVG Version: 6.00 Build 0)  -->
<!DOCTYPE svg PUBLIC "-//W3C//DTD SVG 1.1//EN" "http://www.w3.org/Graphics/SVG/1.1/DTD/svg11.dtd">
<svg version="1.1" id="Layer_1" xmlns="http://www.w3.org/2000/svg" xmlns:xlink="http://www.w3.org/1999/xlink" x="0px" y="0px"
	 viewBox="0 0 11 10" style="enable-background:new 0 0 11 10;" xml:space="preserve">
<g>
	<circle style="fill:#8ed2e8;" cx="0.321" cy="5" r="0.321"/>
	<circle style="fill:#8ed2e8;" cx="10.679" cy="5" r="0.321"/>
	<g>
		<path style="fill:#8ed2e8;" d="M4.967,5.562H1.152c-0.012,0-0.021,0.01-0.02,0.022C1.364,7.668,3.096,9.306,5.221,9.39
			c0.011,0,0.021-0.009,0.021-0.02V5.712C5.137,5.686,5.043,5.633,4.967,5.562z"/>
		<path style="fill:#8ed2e8;" d="M5.759,0.63v3.658c0.105,0.026,0.199,0.079,0.275,0.15h3.815c0.012,0,0.021-0.01,0.02-0.022
			C9.636,2.332,7.904,0.694,5.779,0.61C5.768,0.609,5.759,0.618,5.759,0.63z"/>
	</g>
	<path style="fill:#8ed2e8;" d="M5.759,5.712v2.861c0,0.011,0.01,0.021,0.021,0.02C7.464,8.51,8.838,7.228,9.064,5.585
		c0.002-0.012-0.008-0.023-0.02-0.023H6.033C5.957,5.633,5.863,5.686,5.759,5.712z"/>
	<path style="fill:#8ed2e8;" d="M5.241,4.288V1.427c0-0.011-0.01-0.021-0.021-0.02C3.536,1.49,2.162,2.772,1.936,4.415
		c-0.002,0.012,0.008,0.023,0.02,0.023h3.011C5.043,4.367,5.137,4.314,5.241,4.288z"/>
	<path style="fill:#8ed2e8;" d="M4.788,4.848h-4.57v0.303h4.57C4.776,5.103,4.769,5.052,4.769,5S4.776,4.897,4.788,4.848z"/>
	<path style="fill:#8ed2e8;" d="M6.212,4.848C6.224,4.897,6.231,4.948,6.231,5S6.224,5.103,6.212,5.152h4.502V4.848H6.212z"/>
	<circle style="fill:#8ed2e8;" cx="5.5" cy="5" r="0.321"/>
</g>
</svg>
